:FULLY-SPECIFIED
:FORCE-ALL-JOINTS-BE-3DOF
:DEGREES
243
root 9.23516 16.3106 -2.51287 9.95506 -4.85056 -2.67574
lfemur -44.8009 9.10871 -22.4912
ltibia 43.0557 -0 0
lfoot -7.00248 5.39519 -0.0112772
ltoes -0.0875442 0 0
rfemur 12.1431 2.31657 21.8329
rtibia 23.9659 -0 0
rfoot 6.16007 4.9125 0.0279921
rtoes -15.5283 0 0
lowerback -6.9648 2.09028 0.0800973
upperback -2.70116 2.74547 1.89642
thorax 1.02538 1.37963 2.11795
lowerneck -18.4056 -6.08208 -13.9161
upperneck 16.7515 -7.72769 14.9637
head 9.4886 -3.0008 6.49109
lclavicle -3.61557e-14 6.70654e-15 1.33764e-31
lhumerus -46.2543 -5.07181 88.4424
lradius 19.6847 -0 0
lwrist -5.36343 0 0
lhand -6.43139 -21.9019 0.0072345
lfingers 7.12502 -0 0
lthumb 19.4171 7.14094 0.00523298
rclavicle -3.61557e-14 6.70654e-15 1.33764e-31
rhumerus -46.1574 8.29303 -87.0051
rradius 42.6529 -0 0
rwrist -23.2954 0 0
rhand -30.4499 -24.4388 0.000206179
rfingers 7.12502 -0 0
rthumb -3.75187 -54.3854 0.000195063
244
root 9.25421 16.3048 -2.36023 9.9973 -5.02862 -2.69016
lfemur -45.0083 9.1276 -22.5463
ltibia 42.78 -0 0
lfoot -6.90482 5.28325 -0.00573399
ltoes -0.039847 0 0
rfemur 12.6485 2.3097 21.736
rtibia 23.8908 -0 0
rfoot 6.59363 4.97418 0.0142292
rtoes -15.5511 0 0
lowerback -7.01526 2.10651 0.0737632
upperback -2.71298 2.76692 1.87248
thorax 1.0412 1.39041 2.09952
lowerneck -18.4948 -6.06506 -13.8834
upperneck 16.8192 -7.70476 14.9433
head 9.52096 -2.986 6.48209
lclavicle -3.64624e-14 7.13018e-15 6.80157e-32
lhumerus -46.2135 -4.96767 88.3116
lradius 19.4625 -0 0
lwrist -5.748 0 0
lhand -6.2769 -21.8566 0.00367842
lfingers 7.12502 -0 0
lthumb 19.5659 7.17502 0.00266075
rclavicle -3.64624e-14 7.13018e-15 6.80157e-32
rhumerus -46.2546 8.25822 -87.1537
rradius 42.6142 -0 0
rwrist -23.323 0 0
rhand -30.4352 -24.4251 0.000104837
rfingers 7.12502 -0 0
rthumb -3.73768 -54.3721 9.91844e-05
245
root 9.27326 16.299 -2.20759 10.0396 -5.20667 -2.70471
lfemur -45.2157 9.14628 -22.6014
ltibia 42.5042 0 0
lfoot -6.80717 5.17133 0
ltoes 0.00785024 0 0
rfemur 13.154 2.30368 21.6391
rtibia 23.8158 0 0
rfoot 7.02717 5.03576 0
rtoes -15.5738 0 0
lowerback -7.06572 2.12274 0.0674147
upperback -2.7248 2.78836 1.84854
thorax 1.05702 1.4012 2.0811
lowerneck -18.5841 -6.048 -13.8506
upperneck 16.8868 -7.68181 14.9228
head 9.55333 -2.9712 6.4731
lclavicle -3.6769e-14 7.55382e-15 0
lhumerus -46.1729 -4.86344 88.1809
lradius 19.2404 0 0
lwrist -6.13256 0 0
lhand -6.12241 -21.8112 0
lfingers 7.12502 0 0
lthumb 19.7147 7.2091 0
rclavicle -3.6769e-14 7.55382e-15 0
rhumerus -46.3517 8.22317 -87.3021
rradius 42.5754 0 0
rwrist -23.3507 0 0
rhand -30.4205 -24.4115 0
rfingers 7.12502 0 0
rthumb -3.7235 -54.3587 0
246
root 9.28559 16.3069 -2.07257 9.97991 -5.00279 -2.5688
lfemur -44.2561 8.99627 -22.6453
ltibia 41.8074 -0 0
lfoot -6.93229 5.10533 0.00433195
ltoes 0.0298584 -0 0
rfemur 12.293 2.71224 21.4303
rtibia 23.8438 -0 0
rfoot 6.39757 4.6451 0.135912
rtoes -15.6947 0 0
lowerback -7.08709 2.0067 -0.0494649
upperback -2.68987 2.64203 1.85156
thorax 1.11973 1.32722 2.13302
lowerneck -18.5951 -6.02607 -13.8355
upperneck 16.9682 -7.65348 14.8804
head 9.577 -2.96036 6.46262
lclavicle -3.74714e-14 7.42999e-15 -4.55406e-32
lhumerus -45.6212 -5.33441 88.3526
lradius 19.5242 -0 0
lwrist -5.74029 0 0
lhand -6.20817 -21.791 -0.000907199
lfingers 7.12502 -0 0
lthumb 19.6322 7.2365 -0.00118495
rclavicle -3.74714e-14 7.42999e-15 -4.55406e-32
rhumerus -46.4041 8.19656 -87.2345
rradius 42.4579 -0 0
rwrist -23.2963 0 0
rhand -30.4105 -24.4519 -0.000211484
rfingers 7.12502 -0 0
rthumb -3.71384 -54.3992 -0.000205021
247
root 9.29793 16.3147 -1.93755 9.92073 -4.79876 -2.43315
lfemur -43.2967 8.84701 -22.6917
ltibia 41.1106 -0 0
lfoot -7.05742 5.03932 0.00851976
ltoes 0.0518666 -0 0
rfemur 11.4303 3.11761 21.2154
rtibia 23.8717 -0 0
rfoot 5.76705 4.25296 0.26752
rtoes -15.8155 0 0
lowerback -7.10823 1.89063 -0.166293
upperback -2.65495 2.4957 1.85449
thorax 1.18237 1.25319 2.18486
lowerneck -18.6061 -6.00413 -13.8204
upperneck 17.0495 -7.62509 14.8381
head 9.60066 -2.94951 6.45215
lclavicle -3.81737e-14 7.30615e-15 -8.95632e-32
lhumerus -45.0705 -5.80701 88.5199
lradius 19.808 -0 0
lwrist -5.34801 0 0
lhand -6.29393 -21.7708 -0.00178418
lfingers 7.12502 -0 0
lthumb 19.5496 7.2639 -0.00233042
rclavicle -3.81737e-14 7.30615e-15 -8.95632e-32
rhumerus -46.4566 8.17 -87.1669
rradius 42.3405 -0 0
rwrist -23.2419 0 0
rhand -30.4005 -24.4922 -0.00041592
rfingers 7.12502 -0 0
rthumb -3.70418 -54.4397 -0.000403208
248
root 9.31026 16.3226 -1.80253 9.86204 -4.5946 -2.29775
lfemur -42.3376 8.69854 -22.7406
ltibia 40.4138 -0 0
lfoot -7.18255 4.9733 0.0125634
ltoes 0.0738748 -0 0
rfemur 10.5656 3.5197 20.9942
rtibia 23.8997 -0 0
rfoot 5.13563 3.85939 0.394802
rtoes -15.9364 0 0
lowerback -7.12913 1.7745 -0.283071
upperback -2.62004 2.34937 1.85733
thorax 1.24495 1.1791 2.23661
lowerneck -18.6172 -5.98219 -13.8053
upperneck 17.1308 -7.59664 14.7958
head 9.62432 -2.93866 6.44168
lclavicle -3.88761e-14 7.18232e-15 -1.32068e-31
lhumerus -44.5206 -6.28119 88.6828
lradius 20.0919 -0 0
lwrist -4.95574 0 0
lhand -6.3797 -21.7506 -0.00263094
lfingers 7.12502 -0 0
lthumb 19.4671 7.2913 -0.00343642
rclavicle -3.88761e-14 7.18232e-15 -1.32068e-31
rhumerus -46.5091 8.14351 -87.0993
rradius 42.223 -0 0
rwrist -23.1875 0 0
rhand -30.3905 -24.5326 -0.000613307
rfingers 7.12502 -0 0
rthumb -3.69451 -54.4803 -0.000594563
249
root 9.32259 16.3305 -1.66751 9.80386 -4.3903 -2.1626
lfemur -41.3788 8.55089 -22.792
ltibia 39.717 -0 0
lfoot -7.30769 4.90727 0.0164628
ltoes 0.095883 -0 0
rfemur 9.69902 3.91841 20.7669
rtibia 23.9276 -0 0
rfoot 4.50335 3.46444 0.517736
rtoes -16.0573 0 0
lowerback -7.14978 1.65834 -0.399799
upperback -2.58514 2.20304 1.86008
thorax 1.30745 1.10495 2.28829
lowerneck -18.6282 -5.96024 -13.7902
upperneck 17.2121 -7.56812 14.7535
head 9.64798 -2.9278 6.43122
lclavicle -3.95785e-14 7.05849e-15 -1.73054e-31
lhumerus -43.9716 -6.75689 88.8412
lradius 20.3757 -0 0
lwrist -4.56347 0 0
lhand -6.46546 -21.7304 -0.00344747
lfingers 7.12502 -0 0
lthumb 19.3845 7.31871 -0.00450295
rclavicle -3.95785e-14 7.05849e-15 -1.73054e-31
rhumerus -46.5616 8.11708 -87.0317
rradius 42.1056 -0 0
rwrist -23.133 0 0
rhand -30.3805 -24.573 -0.000803646
rfingers 7.12502 -0 0
rthumb -3.68485 -54.5208 -0.000779084
250
root 9.33493 16.3383 -1.53249 9.74617 -4.18586 -2.02769
lfemur -40.4202 8.40412 -22.8459
ltibia 39.0202 -0 0
lfoot -7.43283 4.84124 0.020218
ltoes 0.117891 -0 0
rfemur 8.83043 4.31363 20.5335
rtibia 23.9556 -0 0
rfoot 3.87022 3.06815 0.636301
rtoes -16.1782 0 0
lowerback -7.17021 1.54213 -0.516479
upperback -2.55026 2.0567 1.86274
thorax 1.36989 1.03075 2.33988
lowerneck -18.6392 -5.9383 -13.7751
upperneck 17.2934 -7.53955 14.7113
head 9.67164 -2.91694 6.42076
lclavicle -4.02808e-14 6.93465e-15 -2.12523e-31
lhumerus -43.4234 -7.23408 88.9952
lradius 20.6595 -0 0
lwrist -4.17119 0 0
lhand -6.55122 -21.7102 -0.00423378
lfingers 7.12502 -0 0
lthumb 19.302 7.34611 -0.00552999
rclavicle -4.02808e-14 6.93465e-15 -2.12523e-31
rhumerus -46.6142 8.09072 -86.964
rradius 41.9881 -0 0
rwrist -23.0786 0 0
rhand -30.3705 -24.6133 -0.000986936
rfingers 7.12502 -0 0
rthumb -3.67519 -54.5613 -0.000956772
251
root 9.34726 16.3462 -1.39747 9.68899 -3.98129 -1.89302
lfemur -39.4618 8.25826 -22.9022
ltibia 38.3235 -0 0
lfoot -7.55798 4.77519 0.023829
ltoes 0.139899 -0 0
rfemur 7.95975 4.70528 20.2939
rtibia 23.9835 -0 0
rfoot 3.23627 2.67056 0.750478
rtoes -16.299 0 0
lowerback -7.19039 1.42589 -0.633111
upperback -2.51538 1.91037 1.86531
thorax 1.43226 0.956494 2.39139
lowerneck -18.6501 -5.91635 -13.76
upperneck 17.3747 -7.51092 14.6691
head 9.69529 -2.90607 6.41031
lclavicle -4.09832e-14 6.81082e-15 -2.50473e-31
lhumerus -42.8759 -7.71272 89.1448
lradius 20.9433 -0 0
lwrist -3.77892 0 0
lhand -6.63699 -21.6901 -0.00498986
lfingers 7.12502 -0 0
lthumb 19.2195 7.37352 -0.00651755
rclavicle -4.09832e-14 6.81082e-15 -2.50473e-31
rhumerus -46.6667 8.06441 -86.8963
rradius 41.8707 -0 0
rwrist -23.0242 0 0
rhand -30.3605 -24.6537 -0.00116318
rfingers 7.12502 -0 0
rthumb -3.66553 -54.6018 -0.00112763
252
root 9.35959 16.3541 -1.26245 9.6323 -3.77658 -1.75859
lfemur -38.5036 8.11335 -22.9609
ltibia 37.6267 -0 0
lfoot -7.68313 4.70914 0.0272957
ltoes 0.161908 -0 0
rfemur 7.08694 5.09325 20.0483
rtibia 24.0115 -0 0
rfoot 2.60153 2.27172 0.860246
rtoes -16.4199 0 0
lowerback -7.21033 1.3096 -0.749697
upperback -2.48051 1.76403 1.8678
thorax 1.49456 0.882179 2.44281
lowerneck -18.6611 -5.8944 -13.745
upperneck 17.4559 -7.48224 14.627
head 9.71894 -2.8952 6.39986
lclavicle -4.16856e-14 6.68699e-15 -2.86906e-31
lhumerus -42.329 -8.19274 89.2899
lradius 21.2271 -0 0
lwrist -3.38665 0 0
lhand -6.72275 -21.6699 -0.00571571
lfingers 7.12502 -0 0
lthumb 19.1369 7.40093 -0.00746562
rclavicle -4.16856e-14 6.68699e-15 -2.86906e-31
rhumerus -46.7193 8.03816 -86.8286
rradius 41.7532 -0 0
rwrist -22.9698 0 0
rhand -30.3505 -24.694 -0.00133237
rfingers 7.12502 -0 0
rthumb -3.65586 -54.6423 -0.00129165
